<?xml version="1.0" encoding="UTF-8" standalone="no"?>
<!DOCTYPE svg PUBLIC "-//W3C//DTD SVG 1.1//EN" "http://www.w3.org/Graphics/SVG/1.1/DTD/svg11.dtd">
<!-- Created with Vectornator (http://vectornator.io/) -->
<svg height="100%" stroke-miterlimit="10" style="fill-rule:nonzero;clip-rule:evenodd;stroke-linecap:round;stroke-linejoin:round;" version="1.1" viewBox="0 0 48 48" width="100%" xml:space="preserve" xmlns="http://www.w3.org/2000/svg" xmlns:vectornator="http://vectornator.io" xmlns:xlink="http://www.w3.org/1999/xlink">
<defs/>
<g id="Layer-1" vectornator:layerName="Layer 1">
<path d="M11.1936 11.9994L36.7517 11.9994C37.9783 11.9994 38.9727 13.0204 38.9727 14.2799L38.9727 14.2799C38.9727 15.5394 37.9783 16.5604 36.7517 16.5604L11.1936 16.5604C9.96702 16.5604 8.97265 15.5394 8.97265 14.2799L8.97265 14.2799C8.97265 13.0204 9.96702 11.9994 11.1936 11.9994Z" fill="#374657" fill-rule="nonzero" opacity="1" stroke="none"/>
<path d="M11.0174 22.025L28.8588 22.025C29.9881 22.025 30.9035 23.046 30.9035 24.3055L30.9035 24.3055C30.9035 25.565 29.9881 26.586 28.8588 26.586L11.0174 26.586C9.88811 26.586 8.97265 25.565 8.97265 24.3055L8.97265 24.3055C8.97265 23.046 9.88811 22.025 11.0174 22.025Z" fill="#374657" fill-rule="nonzero" opacity="1" stroke="none"/>
<path d="M11.0174 31.4385L28.8588 31.4385C29.9881 31.4385 30.9035 32.4595 30.9035 33.7189L30.9035 33.7189C30.9035 34.9784 29.9881 35.9994 28.8588 35.9994L11.0174 35.9994C9.88811 35.9994 8.97265 34.9784 8.97265 33.7189L8.97265 33.7189C8.97265 32.4595 9.88811 31.4385 11.0174 31.4385Z" fill="#374657" fill-rule="nonzero" opacity="1" stroke="none" vectornator:layerName="Rectangle"/>
</g>
</svg>
